<svg width="16" height="10" viewBox="0 0 16 10" fill="none" xmlns="http://www.w3.org/2000/svg">
<path d="M0.352185 0.844159C0.577756 0.623794 0.883657 0.5 1.20262 0.5C1.52157 0.5 1.82747 0.623794 2.05305 0.844159L8.00726 6.66269L13.9615 0.844159C14.1883 0.630039 14.4922 0.511559 14.8076 0.514237C15.123 0.516916 15.4247 0.640538 15.6477 0.858478C15.8707 1.07642 15.9972 1.37124 16 1.67944C16.0027 1.98764 15.8815 2.28457 15.6623 2.50626L8.85769 9.15584C8.63212 9.37621 8.32622 9.5 8.00726 9.5C7.6883 9.5 7.3824 9.37621 7.15683 9.15584L0.352185 2.50626C0.126681 2.28583 0 1.9869 0 1.67521C0 1.36352 0.126681 1.06459 0.352185 0.844159Z" fill="#9099A5"/>
</svg>
